<svg width="1600" height="1197" viewBox="0 0 1600 1197" fill="none" xmlns="http://www.w3.org/2000/svg">
<g clip-path="url(#clip0_296_3051)">
<g filter="url(#filter0_f_296_3051)">
<path d="M2453.71 -76.1726C2736.09 476.235 2438.06 1142.24 1788.03 1411.38C1138.01 1680.53 382.143 1450.9 99.7644 898.489C-182.614 346.081 115.422 -319.919 765.447 -589.065C1415.47 -858.21 2171.33 -628.581 2453.71 -76.1726Z" fill="#A6DAFF"/>
<path d="M1579.71 270.268C1728.34 561.04 1571.42 911.625 1229.2 1053.32C886.987 1195.02 489.073 1074.17 340.437 783.393C191.8 492.621 348.727 142.036 690.942 0.34021C1033.16 -141.355 1431.07 -20.5047 1579.71 270.268Z" fill="#C173FF"/>
<path d="M1203.73 -354.278C1471.66 169.853 1537.6 541.651 1144.59 1134.37C898.579 1337.33 308.851 651.317 40.9272 127.186C-226.997 -396.945 -183.889 -929.617 137.21 -1062.57C458.31 -1195.52 935.809 -878.41 1203.73 -354.278Z" fill="white"/>
</g>
<g opacity="0.3">
<path d="M-16.0672 -29.5149C497.837 -136.936 1011.74 -136.936 1525.65 -29.5149C1703.66 374.954 1730.65 779.428 1606.63 1183.91C1038.72 1302.6 470.813 1302.6 -97.0937 1183.91C-221.087 779.418 -194.079 374.944 -16.0672 -29.5149Z" stroke="white" stroke-opacity="0.75" stroke-miterlimit="10"/>
<path d="M-112.39 1131.15C465.739 1239.58 1043.86 1239.58 1621.97 1131.15" stroke="white" stroke-opacity="0.75" stroke-miterlimit="10"/>
<path d="M-126.001 1078.4C458.924 1176.55 1050.64 1176.55 1635.57 1078.4" stroke="white" stroke-opacity="0.75" stroke-miterlimit="10"/>
<path d="M-137.896 1025.64C455.429 1113.57 1054.13 1113.57 1647.46 1025.64" stroke="white" stroke-opacity="0.75" stroke-miterlimit="10"/>
<path d="M-148.075 972.847C452.444 1050.61 1057.12 1050.61 1657.64 972.847" stroke="white" stroke-opacity="0.75" stroke-miterlimit="10"/>
<path d="M-156.538 920.119C449.976 987.758 1059.61 987.758 1666.12 920.119" stroke="white" stroke-opacity="0.75" stroke-miterlimit="10"/>
<path d="M-163.293 867.357C448.014 924.917 1061.56 924.917 1672.87 867.357" stroke="white" stroke-opacity="0.75" stroke-miterlimit="10"/>
<path d="M-168.273 814.598C446.626 862.109 1063.04 862.109 1677.94 814.598" stroke="white" stroke-opacity="0.75" stroke-miterlimit="10"/>
<path d="M-171.668 761.852C445.969 799.348 1063.61 799.348 1681.24 761.852" stroke="white" stroke-opacity="0.75" stroke-miterlimit="10"/>
<path d="M-173.279 709.09C445.432 736.627 1064.14 736.627 1682.85 709.09" stroke="white" stroke-opacity="0.75" stroke-miterlimit="10"/>
<path d="M-173.187 656.329C445.463 673.957 1064.11 673.957 1682.76 656.329" stroke="white" stroke-opacity="0.75" stroke-miterlimit="10"/>
<path d="M-171.378 603.567C446.068 611.318 1063.51 611.318 1680.96 603.567" stroke="white" stroke-opacity="0.75" stroke-miterlimit="10"/>
<path d="M-167.861 550.807C447.238 548.743 1062.33 548.743 1677.42 550.807" stroke="white" stroke-opacity="0.75" stroke-miterlimit="10"/>
<path d="M-162.612 498.063C448.99 486.184 1060.59 486.184 1672.19 498.063" stroke="white" stroke-opacity="0.75" stroke-miterlimit="10"/>
<path d="M-155.621 445.302C451.342 423.69 1058.31 423.69 1665.29 445.302" stroke="white" stroke-opacity="0.75" stroke-miterlimit="10"/>
<path d="M-147.015 392.541C454.204 361.216 1055.42 361.216 1656.64 392.541" stroke="white" stroke-opacity="0.75" stroke-miterlimit="10"/>
<path d="M-136.643 339.779C457.253 298.8 1052.32 298.8 1646.22 339.779" stroke="white" stroke-opacity="0.75" stroke-miterlimit="10"/>
<path d="M-124.562 287.02C461.062 236.427 1048.49 236.427 1634.12 287.02" stroke="white" stroke-opacity="0.75" stroke-miterlimit="10"/>
<path d="M-110.758 234.272C465.404 174.095 1044.16 174.095 1620.33 234.272" stroke="white" stroke-opacity="0.75" stroke-miterlimit="10"/>
<path d="M-95.2412 181.511C470.262 111.798 1039.32 111.798 1604.82 181.511" stroke="white" stroke-opacity="0.75" stroke-miterlimit="10"/>
<path d="M-78.021 128.751C475.627 49.5468 1033.95 49.5468 1587.6 128.751" stroke="white" stroke-opacity="0.75" stroke-miterlimit="10"/>
<path d="M-59.0762 75.9909C481.502 -12.656 1028.08 -12.656 1568.65 75.9909" stroke="white" stroke-opacity="0.75" stroke-miterlimit="10"/>
<path d="M-38.4277 23.2451C490.384 -74.8042 1019.2 -74.8042 1548.01 23.2451" stroke="white" stroke-opacity="0.75" stroke-miterlimit="10"/>
<path d="M1477.46 -39.2682C1644.35 371.703 1669.66 783.025 1553.38 1194.7" stroke="white" stroke-opacity="0.75" stroke-miterlimit="10"/>
<path d="M1429.29 -48.4017C1585.05 368.648 1608.68 786.374 1500.17 1204.78" stroke="white" stroke-opacity="0.75" stroke-miterlimit="10"/>
<path d="M1381.17 -56.9015C1525.8 365.835 1547.74 789.512 1446.97 1214.13" stroke="white" stroke-opacity="0.75" stroke-miterlimit="10"/>
<path d="M1332.93 -64.7675C1466.44 363.202 1486.7 792.41 1393.68 1222.86" stroke="white" stroke-opacity="0.75" stroke-miterlimit="10"/>
<path d="M1284.75 -71.9977C1407.13 360.782 1425.69 795.068 1340.44 1230.86" stroke="white" stroke-opacity="0.75" stroke-miterlimit="10"/>
<path d="M1236.58 -78.6051C1347.83 358.592 1364.7 797.517 1287.19 1238.17" stroke="white" stroke-opacity="0.75" stroke-miterlimit="10"/>
<path d="M1188.39 -84.5365C1288.54 356.613 1303.72 799.719 1233.93 1244.78" stroke="white" stroke-opacity="0.75" stroke-miterlimit="10"/>
<path d="M1140.22 -89.939C1229.23 354.813 1242.73 801.711 1180.72 1250.76" stroke="white" stroke-opacity="0.75" stroke-miterlimit="10"/>
<path d="M1092.03 -94.6608C1169.91 353.27 1181.73 803.461 1127.47 1255.91" stroke="white" stroke-opacity="0.75" stroke-miterlimit="10"/>
<path d="M1043.86 -98.7467C1110.58 351.888 1120.7 804.948 1074.24 1260.43" stroke="white" stroke-opacity="0.75" stroke-miterlimit="10"/>
<path d="M995.685 -102.214C1051.31 350.732 1059.75 806.223 1020.99 1264.26" stroke="white" stroke-opacity="0.75" stroke-miterlimit="10"/>
<path d="M947.511 -105.048C991.989 349.787 998.741 807.264 967.767 1267.38" stroke="white" stroke-opacity="0.75" stroke-miterlimit="10"/>
<path d="M899.324 -107.246C932.721 350.42 937.8 811.031 914.508 1269.83" stroke="white" stroke-opacity="0.75" stroke-miterlimit="10"/>
<path d="M851.151 -108.826C873.408 350.728 876.776 811.586 861.239 1271.64" stroke="white" stroke-opacity="0.75" stroke-miterlimit="10"/>
<path d="M802.964 -109.77C814.084 348.203 815.771 808.993 808.026 1272.6" stroke="white" stroke-opacity="0.75" stroke-miterlimit="10"/>
<path d="M754.787 -110.08L754.787 1272.96" stroke="white" stroke-opacity="0.75" stroke-miterlimit="10"/>
<path d="M706.613 -109.77C695.478 348.203 693.787 808.993 701.54 1272.6" stroke="white" stroke-opacity="0.75" stroke-miterlimit="10"/>
<path d="M658.428 -108.826C636.159 350.727 632.78 811.586 648.305 1271.64" stroke="white" stroke-opacity="0.75" stroke-miterlimit="10"/>
<path d="M610.257 -107.246C576.862 350.42 571.78 811.03 595.062 1269.83" stroke="white" stroke-opacity="0.75" stroke-miterlimit="10"/>
<path d="M562.072 -105.048C517.594 349.787 510.846 807.264 541.827 1267.38" stroke="white" stroke-opacity="0.75" stroke-miterlimit="10"/>
<path d="M513.849 -102.214C458.252 350.732 449.816 806.223 488.543 1264.26" stroke="white" stroke-opacity="0.75" stroke-miterlimit="10"/>
<path d="M465.723 -98.7467C398.96 351.888 388.833 804.948 435.343 1260.43" stroke="white" stroke-opacity="0.75" stroke-miterlimit="10"/>
<path d="M417.537 -94.6608C339.662 353.27 327.848 803.461 382.096 1255.91" stroke="white" stroke-opacity="0.75" stroke-miterlimit="10"/>
<path d="M369.363 -89.939C280.353 354.813 266.853 801.711 328.861 1250.76" stroke="white" stroke-opacity="0.75" stroke-miterlimit="10"/>
<path d="M321.187 -84.5365C221.05 356.613 205.859 799.719 275.613 1244.78" stroke="white" stroke-opacity="0.75" stroke-miterlimit="10"/>
<path d="M272.999 -78.6051C161.742 358.592 144.872 797.517 222.386 1238.17" stroke="white" stroke-opacity="0.75" stroke-miterlimit="10"/>
<path d="M224.828 -71.9977C102.438 360.782 83.8718 795.068 169.131 1230.86" stroke="white" stroke-opacity="0.75" stroke-miterlimit="10"/>
<path d="M176.642 -64.7676C43.139 363.202 22.8747 792.41 115.849 1222.86" stroke="white" stroke-opacity="0.75" stroke-miterlimit="10"/>
<path d="M128.502 -56.9015C-16.1353 365.835 -38.0713 789.512 62.6942 1214.13" stroke="white" stroke-opacity="0.75" stroke-miterlimit="10"/>
<path d="M80.2932 -48.4017C-75.4485 368.648 -99.0755 786.374 9.4123 1204.78" stroke="white" stroke-opacity="0.75" stroke-miterlimit="10"/>
<path d="M32.1088 -39.2682C-134.775 371.703 -160.082 783.025 -43.8104 1194.7" stroke="white" stroke-opacity="0.75" stroke-miterlimit="10"/>
</g>
<g filter="url(#filter1_f_296_3051)">
<rect x="-496" y="-462" width="2566" height="831" fill="white"/>
</g>
</g>
<defs>
<filter id="filter0_f_296_3051" x="-377.777" y="-1335.74" width="3180.95" height="3102.65" filterUnits="userSpaceOnUse" color-interpolation-filters="sRGB">
<feFlood flood-opacity="0" result="BackgroundImageFix"/>
<feBlend mode="normal" in="SourceGraphic" in2="BackgroundImageFix" result="shape"/>
<feGaussianBlur stdDeviation="121.438" result="effect1_foregroundBlur_296_3051"/>
</filter>
<filter id="filter1_f_296_3051" x="-896" y="-862" width="3366" height="1631" filterUnits="userSpaceOnUse" color-interpolation-filters="sRGB">
<feFlood flood-opacity="0" result="BackgroundImageFix"/>
<feBlend mode="normal" in="SourceGraphic" in2="BackgroundImageFix" result="shape"/>
<feGaussianBlur stdDeviation="200" result="effect1_foregroundBlur_296_3051"/>
</filter>
<clipPath id="clip0_296_3051">
<rect width="1600" height="1197" fill="white"/>
</clipPath>
</defs>
</svg>
